<svg xmlns="http://www.w3.org/2000/svg" xmlns:xlink="http://www.w3.org/1999/xlink" width="500" zoomAndPan="magnify" viewBox="0 0 375 374.999991" height="500" preserveAspectRatio="xMidYMid meet" version="1.0"><defs><g/><clipPath id="8f9edeb6ef"><path d="M 157.214844 132 L 178 132 L 178 162 L 157.214844 162 Z M 157.214844 132 " clip-rule="nonzero"/></clipPath><clipPath id="f0d8710c74"><path d="M 157.214844 131 L 179 131 L 179 163 L 157.214844 163 Z M 157.214844 131 " clip-rule="nonzero"/></clipPath><clipPath id="dec5ab2791"><path d="M 197 132 L 217.964844 132 L 217.964844 162 L 197 162 Z M 197 132 " clip-rule="nonzero"/></clipPath><clipPath id="150f6fe61b"><path d="M 196 131 L 217.964844 131 L 217.964844 163 L 196 163 Z M 196 131 " clip-rule="nonzero"/></clipPath><clipPath id="884f200539"><path d="M 176 123.375 L 198 123.375 L 198 170.625 L 176 170.625 Z M 176 123.375 " clip-rule="nonzero"/></clipPath></defs><rect x="-37.5" width="450" fill="#ffffff" y="-37.499999" height="449.999989" fill-opacity="1"/><rect x="-37.5" width="450" fill="#000000" y="-37.499999" height="449.999989" fill-opacity="1"/><g clip-path="url(#8f9edeb6ef)"><path fill="#03fa6e" d="M 176.320312 161.707031 C 175.988281 161.707031 175.65625 161.59375 175.394531 161.386719 L 158.457031 148.058594 C 158.09375 147.773438 157.882812 147.34375 157.882812 146.882812 C 157.882812 146.417969 158.09375 145.988281 158.457031 145.703125 L 175.394531 132.378906 C 175.65625 132.167969 175.988281 132.058594 176.320312 132.058594 C 176.785156 132.058594 177.214844 132.261719 177.5 132.628906 C 177.746094 132.941406 177.859375 133.335938 177.8125 133.734375 C 177.765625 134.132812 177.5625 134.488281 177.25 134.734375 L 161.8125 146.882812 L 177.25 159.027344 C 177.5625 159.277344 177.765625 159.632812 177.8125 160.027344 C 177.859375 160.425781 177.746094 160.816406 177.5 161.136719 C 177.214844 161.496094 176.785156 161.707031 176.320312 161.707031 " fill-opacity="1" fill-rule="nonzero"/></g><g clip-path="url(#f0d8710c74)"><path fill="#2a446b" d="M 176.320312 131.417969 C 175.84375 131.417969 175.375 131.578125 175 131.875 L 158.0625 145.199219 C 157.542969 145.613281 157.246094 146.222656 157.246094 146.882812 C 157.246094 147.542969 157.542969 148.15625 158.0625 148.5625 L 175 161.886719 C 175.375 162.183594 175.84375 162.347656 176.320312 162.347656 C 176.984375 162.347656 177.597656 162.046875 178.003906 161.527344 C 178.359375 161.082031 178.511719 160.523438 178.445312 159.953125 C 178.378906 159.386719 178.09375 158.878906 177.644531 158.527344 L 162.84375 146.882812 L 177.644531 135.238281 C 178.09375 134.882812 178.378906 134.375 178.445312 133.808594 C 178.511719 133.242188 178.359375 132.683594 178.003906 132.234375 C 177.597656 131.714844 176.980469 131.417969 176.320312 131.417969 Z M 176.320312 132.695312 C 176.578125 132.695312 176.828125 132.808594 177 133.023438 C 177.292969 133.398438 177.226562 133.941406 176.855469 134.234375 L 160.777344 146.882812 L 176.855469 159.53125 C 177.226562 159.824219 177.292969 160.367188 177 160.738281 C 176.828125 160.957031 176.578125 161.070312 176.320312 161.070312 C 176.132812 161.070312 175.949219 161.007812 175.789062 160.882812 L 158.851562 147.558594 C 158.644531 147.394531 158.523438 147.144531 158.523438 146.882812 C 158.523438 146.617188 158.644531 146.367188 158.851562 146.203125 L 175.789062 132.878906 C 175.945312 132.753906 176.132812 132.695312 176.320312 132.695312 " fill-opacity="1" fill-rule="nonzero"/></g><g clip-path="url(#dec5ab2791)"><path fill="#03fa6e" d="M 198.667969 161.707031 C 198.207031 161.707031 197.777344 161.496094 197.488281 161.136719 C 196.976562 160.484375 197.089844 159.539062 197.742188 159.027344 L 213.179688 146.882812 L 197.742188 134.734375 C 197.089844 134.222656 196.976562 133.277344 197.488281 132.628906 C 197.777344 132.261719 198.207031 132.058594 198.667969 132.058594 C 199.003906 132.058594 199.332031 132.167969 199.597656 132.378906 L 216.535156 145.703125 C 216.898438 145.988281 217.105469 146.417969 217.105469 146.882812 C 217.105469 147.34375 216.898438 147.773438 216.53125 148.058594 L 199.597656 161.386719 C 199.332031 161.59375 199.003906 161.707031 198.667969 161.707031 " fill-opacity="1" fill-rule="nonzero"/></g><g clip-path="url(#150f6fe61b)"><path fill="#2a446b" d="M 198.667969 131.417969 C 198.007812 131.417969 197.394531 131.714844 196.988281 132.234375 C 196.257812 133.160156 196.417969 134.507812 197.34375 135.238281 L 212.144531 146.882812 L 197.34375 158.527344 C 196.417969 159.253906 196.257812 160.601562 196.988281 161.527344 C 197.394531 162.046875 198.007812 162.347656 198.667969 162.347656 C 199.148438 162.347656 199.613281 162.183594 199.988281 161.886719 L 216.929688 148.5625 C 217.445312 148.15625 217.742188 147.542969 217.742188 146.882812 C 217.742188 146.222656 217.445312 145.613281 216.929688 145.199219 L 199.992188 131.875 C 199.617188 131.578125 199.148438 131.417969 198.667969 131.417969 Z M 198.667969 132.695312 C 198.855469 132.695312 199.042969 132.753906 199.199219 132.878906 L 216.140625 146.203125 C 216.347656 146.367188 216.464844 146.617188 216.464844 146.882812 C 216.464844 147.144531 216.347656 147.394531 216.140625 147.558594 L 199.199219 160.882812 C 199.042969 161.007812 198.855469 161.070312 198.667969 161.070312 C 198.414062 161.070312 198.160156 160.957031 197.992188 160.738281 C 197.699219 160.367188 197.761719 159.824219 198.136719 159.53125 L 214.210938 146.882812 L 198.136719 134.234375 C 197.761719 133.941406 197.699219 133.398438 197.992188 133.023438 C 198.160156 132.808594 198.414062 132.695312 198.667969 132.695312 " fill-opacity="1" fill-rule="nonzero"/></g><path fill="#03fa6e" d="M 179.078125 169.75 C 178.890625 169.75 178.710938 169.710938 178.535156 169.644531 C 178.164062 169.5 177.867188 169.21875 177.707031 168.855469 C 177.542969 168.484375 177.535156 168.078125 177.679688 167.707031 L 194.21875 124.972656 C 194.441406 124.402344 195.003906 124.015625 195.617188 124.015625 C 195.804688 124.015625 195.988281 124.050781 196.164062 124.117188 C 196.929688 124.417969 197.316406 125.289062 197.019531 126.058594 L 180.476562 168.789062 C 180.257812 169.363281 179.691406 169.75 179.078125 169.75 " fill-opacity="1" fill-rule="nonzero"/><g clip-path="url(#884f200539)"><path fill="#2a446b" d="M 195.617188 123.375 C 194.742188 123.375 193.9375 123.929688 193.625 124.742188 L 177.082031 167.472656 C 176.878906 168.007812 176.890625 168.589844 177.121094 169.113281 C 177.351562 169.632812 177.773438 170.035156 178.304688 170.242188 C 178.554688 170.339844 178.8125 170.386719 179.078125 170.386719 C 179.953125 170.386719 180.757812 169.835938 181.074219 169.019531 L 197.613281 126.289062 C 198.039062 125.1875 197.492188 123.945312 196.390625 123.523438 C 196.144531 123.425781 195.882812 123.375 195.617188 123.375 Z M 195.617188 124.652344 C 195.722656 124.652344 195.828125 124.675781 195.929688 124.714844 C 196.375 124.882812 196.59375 125.382812 196.421875 125.828125 L 179.878906 168.558594 C 179.75 168.898438 179.421875 169.109375 179.078125 169.109375 C 178.972656 169.109375 178.867188 169.089844 178.765625 169.050781 C 178.320312 168.878906 178.101562 168.378906 178.277344 167.9375 L 194.816406 125.207031 C 194.949219 124.863281 195.273438 124.652344 195.617188 124.652344 " fill-opacity="1" fill-rule="nonzero"/></g><g fill="#ffffff" fill-opacity="1"><g transform="translate(123.94511, 216.116295)"><g><path d="M 29.28125 -33.59375 L 15.859375 -16.984375 L 29.375 0 L 21.421875 0 L 8.734375 -16.484375 L 8.734375 0 L 2.28125 0 L 2.28125 -33.59375 L 8.734375 -33.59375 L 8.734375 -17.109375 L 21.75 -33.59375 Z M 29.28125 -33.59375 "/></g></g></g><g fill="#ffffff" fill-opacity="1"><g transform="translate(152.147687, 216.116295)"><g><path d="M 13.34375 -24.609375 C 15.550781 -24.609375 17.46875 -24.3125 19.09375 -23.71875 C 20.726562 -23.125 21.992188 -22.140625 22.890625 -20.765625 C 23.785156 -19.398438 24.234375 -17.546875 24.234375 -15.203125 L 24.234375 -0.5 C 22.597656 -0.132812 20.800781 0.144531 18.84375 0.34375 C 16.882812 0.550781 15.09375 0.65625 13.46875 0.65625 C 11.03125 0.65625 8.925781 0.410156 7.15625 -0.078125 C 5.394531 -0.578125 4.035156 -1.390625 3.078125 -2.515625 C 2.128906 -3.648438 1.65625 -5.144531 1.65625 -7 L 1.65625 -7.078125 C 1.65625 -9.617188 2.609375 -11.484375 4.515625 -12.671875 C 6.421875 -13.859375 9.003906 -14.453125 12.265625 -14.453125 C 13.148438 -14.453125 14.023438 -14.429688 14.890625 -14.390625 C 15.765625 -14.347656 16.679688 -14.257812 17.640625 -14.125 L 17.640625 -15 C 17.640625 -16.488281 17.140625 -17.535156 16.140625 -18.140625 C 15.148438 -18.742188 13.742188 -19.046875 11.921875 -19.046875 C 10.734375 -19.046875 9.367188 -18.898438 7.828125 -18.609375 C 6.285156 -18.328125 4.863281 -17.921875 3.5625 -17.390625 L 5.015625 -23.234375 C 5.617188 -23.484375 6.375 -23.710938 7.28125 -23.921875 C 8.195312 -24.128906 9.1875 -24.296875 10.25 -24.421875 C 11.3125 -24.546875 12.34375 -24.609375 13.34375 -24.609375 Z M 8.40625 -7.421875 L 8.40625 -7.328125 C 8.40625 -6.304688 8.867188 -5.570312 9.796875 -5.125 C 10.722656 -4.6875 12.023438 -4.46875 13.703125 -4.46875 C 14.867188 -4.46875 16.179688 -4.582031 17.640625 -4.8125 L 17.640625 -9.9375 C 16.984375 -10.050781 16.296875 -10.132812 15.578125 -10.1875 C 14.859375 -10.238281 14.234375 -10.265625 13.703125 -10.265625 C 12.046875 -10.265625 10.75 -10.050781 9.8125 -9.625 C 8.875 -9.195312 8.40625 -8.460938 8.40625 -7.421875 Z M 8.40625 -7.421875 "/></g></g></g><g fill="#ffffff" fill-opacity="1"><g transform="translate(176.954323, 216.116295)"><g><path d="M 17.734375 -6.46875 L 17.734375 -23.53125 L 24.265625 -23.53125 L 24.265625 0.171875 C 24.265625 2.546875 23.769531 4.414062 22.78125 5.78125 C 21.789062 7.144531 20.472656 8.113281 18.828125 8.6875 C 17.179688 9.269531 15.378906 9.5625 13.421875 9.5625 C 12.453125 9.5625 11.460938 9.5 10.453125 9.375 C 9.453125 9.257812 8.53125 9.101562 7.6875 8.90625 C 6.84375 8.707031 6.171875 8.5 5.671875 8.28125 L 4.21875 2.03125 C 5 2.382812 5.890625 2.691406 6.890625 2.953125 C 7.898438 3.222656 8.910156 3.425781 9.921875 3.5625 C 10.929688 3.695312 11.796875 3.765625 12.515625 3.765625 C 14.472656 3.765625 15.832031 3.425781 16.59375 2.75 C 17.351562 2.070312 17.734375 1.003906 17.734375 -0.453125 L 17.734375 -1.328125 C 16.953125 -1.242188 16.164062 -1.171875 15.375 -1.109375 C 14.59375 -1.054688 13.882812 -1.03125 13.25 -1.03125 C 11.789062 -1.03125 10.394531 -1.175781 9.0625 -1.46875 C 7.738281 -1.757812 6.566406 -2.25 5.546875 -2.9375 C 4.523438 -3.625 3.722656 -4.5625 3.140625 -5.75 C 2.566406 -6.9375 2.28125 -8.429688 2.28125 -10.234375 L 2.28125 -23.78125 L 8.828125 -23.78125 L 8.828125 -10.265625 C 8.828125 -8.753906 9.222656 -7.691406 10.015625 -7.078125 C 10.816406 -6.472656 11.976562 -6.171875 13.5 -6.171875 C 14.132812 -6.171875 14.84375 -6.195312 15.625 -6.25 C 16.414062 -6.3125 17.117188 -6.382812 17.734375 -6.46875 Z M 17.734375 -6.46875 "/></g></g></g><g fill="#ffffff" fill-opacity="1"><g transform="translate(201.926611, 216.116295)"><g><path d="M 8.828125 -12.390625 L 9.03125 -12.09375 L 8.828125 -11.8125 L 8.828125 0 L 2.28125 0 L 2.28125 -33.59375 L 8.828125 -33.59375 Z M 16.359375 -12.171875 L 25.21875 0 L 17.515625 0 L 9.03125 -12.09375 L 17.609375 -23.78125 L 24.8125 -23.78125 Z M 16.359375 -12.171875 "/></g></g></g><g fill="#ffffff" fill-opacity="1"><g transform="translate(226.070622, 216.116295)"><g><path d="M 17.734375 -6.46875 L 17.734375 -23.53125 L 24.265625 -23.53125 L 24.265625 0.171875 C 24.265625 2.546875 23.769531 4.414062 22.78125 5.78125 C 21.789062 7.144531 20.472656 8.113281 18.828125 8.6875 C 17.179688 9.269531 15.378906 9.5625 13.421875 9.5625 C 12.453125 9.5625 11.460938 9.5 10.453125 9.375 C 9.453125 9.257812 8.53125 9.101562 7.6875 8.90625 C 6.84375 8.707031 6.171875 8.5 5.671875 8.28125 L 4.21875 2.03125 C 5 2.382812 5.890625 2.691406 6.890625 2.953125 C 7.898438 3.222656 8.910156 3.425781 9.921875 3.5625 C 10.929688 3.695312 11.796875 3.765625 12.515625 3.765625 C 14.472656 3.765625 15.832031 3.425781 16.59375 2.75 C 17.351562 2.070312 17.734375 1.003906 17.734375 -0.453125 L 17.734375 -1.328125 C 16.953125 -1.242188 16.164062 -1.171875 15.375 -1.109375 C 14.59375 -1.054688 13.882812 -1.03125 13.25 -1.03125 C 11.789062 -1.03125 10.394531 -1.175781 9.0625 -1.46875 C 7.738281 -1.757812 6.566406 -2.25 5.546875 -2.9375 C 4.523438 -3.625 3.722656 -4.5625 3.140625 -5.75 C 2.566406 -6.9375 2.28125 -8.429688 2.28125 -10.234375 L 2.28125 -23.78125 L 8.828125 -23.78125 L 8.828125 -10.265625 C 8.828125 -8.753906 9.222656 -7.691406 10.015625 -7.078125 C 10.816406 -6.472656 11.976562 -6.171875 13.5 -6.171875 C 14.132812 -6.171875 14.84375 -6.195312 15.625 -6.25 C 16.414062 -6.3125 17.117188 -6.382812 17.734375 -6.46875 Z M 17.734375 -6.46875 "/></g></g></g><g fill="#03fa6e" fill-opacity="1"><g transform="translate(97.378321, 245.299906)"><g><path d="M 4.09375 0 L 1.03125 0 L 1.03125 -10.90625 C 1.65625 -11.019531 2.289062 -11.117188 2.9375 -11.203125 C 3.582031 -11.285156 4.1875 -11.351562 4.75 -11.40625 C 5.320312 -11.457031 5.796875 -11.484375 6.171875 -11.484375 C 7.085938 -11.484375 7.929688 -11.359375 8.703125 -11.109375 C 9.484375 -10.859375 10.101562 -10.421875 10.5625 -9.796875 C 11.03125 -9.171875 11.265625 -8.3125 11.265625 -7.21875 L 11.265625 0 L 8.234375 0 L 8.234375 -6.84375 C 8.234375 -7.539062 8.046875 -8.03125 7.671875 -8.3125 C 7.296875 -8.601562 6.753906 -8.75 6.046875 -8.75 C 5.773438 -8.75 5.472656 -8.734375 5.140625 -8.703125 C 4.804688 -8.671875 4.457031 -8.625 4.09375 -8.5625 Z M 4.09375 0 "/></g></g></g><g fill="#03fa6e" fill-opacity="1"><g transform="translate(108.973978, 245.299906)"><g><path d="M 6.1875 -11.421875 C 7.21875 -11.421875 8.109375 -11.28125 8.859375 -11 C 9.617188 -10.726562 10.207031 -10.273438 10.625 -9.640625 C 11.039062 -9.003906 11.25 -8.144531 11.25 -7.0625 L 11.25 -0.234375 C 10.5 -0.0664062 9.664062 0.0625 8.75 0.15625 C 7.84375 0.257812 7.007812 0.3125 6.25 0.3125 C 5.125 0.3125 4.148438 0.195312 3.328125 -0.03125 C 2.503906 -0.269531 1.867188 -0.648438 1.421875 -1.171875 C 0.984375 -1.703125 0.765625 -2.394531 0.765625 -3.25 L 0.765625 -3.296875 C 0.765625 -4.472656 1.207031 -5.335938 2.09375 -5.890625 C 2.976562 -6.441406 4.175781 -6.71875 5.6875 -6.71875 C 6.101562 -6.71875 6.507812 -6.707031 6.90625 -6.6875 C 7.3125 -6.664062 7.738281 -6.625 8.1875 -6.5625 L 8.1875 -6.96875 C 8.1875 -7.65625 7.957031 -8.140625 7.5 -8.421875 C 7.039062 -8.703125 6.390625 -8.84375 5.546875 -8.84375 C 4.992188 -8.84375 4.359375 -8.773438 3.640625 -8.640625 C 2.921875 -8.503906 2.257812 -8.316406 1.65625 -8.078125 L 2.328125 -10.796875 C 2.609375 -10.910156 2.957031 -11.015625 3.375 -11.109375 C 3.800781 -11.203125 4.257812 -11.273438 4.75 -11.328125 C 5.25 -11.390625 5.726562 -11.421875 6.1875 -11.421875 Z M 3.90625 -3.4375 L 3.90625 -3.40625 C 3.90625 -2.925781 4.117188 -2.582031 4.546875 -2.375 C 4.972656 -2.175781 5.578125 -2.078125 6.359375 -2.078125 C 6.898438 -2.078125 7.507812 -2.128906 8.1875 -2.234375 L 8.1875 -4.609375 C 7.882812 -4.660156 7.566406 -4.695312 7.234375 -4.71875 C 6.898438 -4.75 6.609375 -4.765625 6.359375 -4.765625 C 5.597656 -4.765625 5 -4.664062 4.5625 -4.46875 C 4.125 -4.269531 3.90625 -3.925781 3.90625 -3.4375 Z M 3.90625 -3.4375 "/></g></g></g><g fill="#03fa6e" fill-opacity="1"><g transform="translate(120.492718, 245.299906)"><g><path d="M 5.640625 0.25 C 3.953125 0.25 2.332031 -0.0703125 0.78125 -0.71875 L 1.609375 -2.921875 C 2.253906 -2.640625 2.90625 -2.429688 3.5625 -2.296875 C 4.21875 -2.171875 4.816406 -2.109375 5.359375 -2.109375 C 6.015625 -2.109375 6.546875 -2.171875 6.953125 -2.296875 C 7.359375 -2.429688 7.5625 -2.695312 7.5625 -3.09375 C 7.5625 -3.394531 7.429688 -3.628906 7.171875 -3.796875 C 6.921875 -3.972656 6.390625 -4.171875 5.578125 -4.390625 L 4.546875 -4.65625 C 3.390625 -4.957031 2.539062 -5.390625 2 -5.953125 C 1.457031 -6.523438 1.1875 -7.265625 1.1875 -8.171875 C 1.1875 -9.203125 1.570312 -10.007812 2.34375 -10.59375 C 3.125 -11.175781 4.234375 -11.46875 5.671875 -11.46875 C 6.503906 -11.46875 7.320312 -11.378906 8.125 -11.203125 C 8.925781 -11.023438 9.609375 -10.789062 10.171875 -10.5 L 9.296875 -8.359375 C 8.804688 -8.617188 8.257812 -8.804688 7.65625 -8.921875 C 7.050781 -9.035156 6.515625 -9.09375 6.046875 -9.09375 C 5.492188 -9.09375 5.054688 -9.03125 4.734375 -8.90625 C 4.421875 -8.789062 4.265625 -8.578125 4.265625 -8.265625 C 4.265625 -7.984375 4.410156 -7.757812 4.703125 -7.59375 C 4.992188 -7.425781 5.472656 -7.25 6.140625 -7.0625 L 6.921875 -6.84375 C 8.171875 -6.5 9.085938 -6.046875 9.671875 -5.484375 C 10.265625 -4.921875 10.5625 -4.203125 10.5625 -3.328125 C 10.5625 -0.941406 8.921875 0.25 5.640625 0.25 Z M 5.640625 0.25 "/></g></g></g><g fill="#03fa6e" fill-opacity="1"><g transform="translate(131.08839, 245.299906)"><g><path d="M 6.765625 0.28125 C 5.566406 0.28125 4.515625 0.0351562 3.609375 -0.453125 C 2.710938 -0.941406 2.015625 -1.628906 1.515625 -2.515625 C 1.015625 -3.398438 0.765625 -4.421875 0.765625 -5.578125 L 0.765625 -5.609375 C 0.765625 -6.765625 1.007812 -7.78125 1.5 -8.65625 C 2 -9.539062 2.703125 -10.234375 3.609375 -10.734375 C 4.515625 -11.234375 5.566406 -11.484375 6.765625 -11.484375 C 7.429688 -11.484375 8.101562 -11.398438 8.78125 -11.234375 C 9.46875 -11.066406 10.070312 -10.835938 10.59375 -10.546875 L 9.390625 -8.265625 C 9.015625 -8.472656 8.617188 -8.632812 8.203125 -8.75 C 7.796875 -8.863281 7.367188 -8.921875 6.921875 -8.921875 C 5.953125 -8.921875 5.195312 -8.609375 4.65625 -7.984375 C 4.113281 -7.367188 3.84375 -6.578125 3.84375 -5.609375 L 3.84375 -5.578125 C 3.84375 -4.628906 4.113281 -3.835938 4.65625 -3.203125 C 5.195312 -2.566406 5.953125 -2.25 6.921875 -2.25 C 7.367188 -2.25 7.796875 -2.300781 8.203125 -2.40625 C 8.609375 -2.519531 9.003906 -2.679688 9.390625 -2.890625 L 10.578125 -0.609375 C 10.066406 -0.328125 9.46875 -0.109375 8.78125 0.046875 C 8.101562 0.203125 7.429688 0.28125 6.765625 0.28125 Z M 6.765625 0.28125 "/></g></g></g><g fill="#03fa6e" fill-opacity="1"><g transform="translate(141.41484, 245.299906)"><g><path d="M 2.5625 -12.484375 C 2.144531 -12.484375 1.785156 -12.59375 1.484375 -12.8125 C 1.179688 -13.03125 1.03125 -13.367188 1.03125 -13.828125 C 1.03125 -14.234375 1.175781 -14.554688 1.46875 -14.796875 C 1.757812 -15.035156 2.125 -15.15625 2.5625 -15.15625 C 3.007812 -15.15625 3.375 -15.035156 3.65625 -14.796875 C 3.9375 -14.554688 4.078125 -14.234375 4.078125 -13.828125 C 4.078125 -13.367188 3.925781 -13.03125 3.625 -12.8125 C 3.332031 -12.59375 2.976562 -12.484375 2.5625 -12.484375 Z M 4.09375 0 L 1.03125 0 L 1.03125 -11.046875 L 4.09375 -11.046875 Z M 4.09375 0 "/></g></g></g><g fill="#03fa6e" fill-opacity="1"><g transform="translate(145.818274, 245.299906)"><g><path d="M 4.09375 0 L 1.03125 0 L 1.03125 -10.921875 C 1.664062 -11.035156 2.289062 -11.132812 2.90625 -11.21875 C 3.53125 -11.300781 4.101562 -11.367188 4.625 -11.421875 C 5.144531 -11.472656 5.566406 -11.5 5.890625 -11.5 C 6.585938 -11.5 7.226562 -11.382812 7.8125 -11.15625 C 8.394531 -10.9375 8.863281 -10.554688 9.21875 -10.015625 C 9.613281 -10.546875 10.125 -10.925781 10.75 -11.15625 C 11.375 -11.382812 12.085938 -11.5 12.890625 -11.5 C 13.847656 -11.5 14.671875 -11.359375 15.359375 -11.078125 C 16.046875 -10.804688 16.570312 -10.359375 16.9375 -9.734375 C 17.3125 -9.117188 17.5 -8.28125 17.5 -7.21875 L 17.5 0 L 14.4375 0 L 14.4375 -6.859375 C 14.4375 -7.441406 14.316406 -7.90625 14.078125 -8.25 C 13.847656 -8.59375 13.351562 -8.765625 12.59375 -8.765625 C 11.851562 -8.765625 11.359375 -8.59375 11.109375 -8.25 C 10.867188 -7.90625 10.75 -7.441406 10.75 -6.859375 L 10.75 0 L 7.71875 0 L 7.71875 -6.859375 C 7.71875 -7.566406 7.539062 -8.0625 7.1875 -8.34375 C 6.832031 -8.625 6.351562 -8.765625 5.75 -8.765625 C 5.507812 -8.765625 5.25 -8.75 4.96875 -8.71875 C 4.695312 -8.6875 4.40625 -8.640625 4.09375 -8.578125 Z M 4.09375 0 "/></g></g></g><g fill="#03fa6e" fill-opacity="1"><g transform="translate(163.625406, 245.299906)"><g><path d="M 12.21875 -5.15625 L 12.21875 -4.890625 L 3.9375 -4.890625 C 4.09375 -4.179688 4.4375 -3.585938 4.96875 -3.109375 C 5.5 -2.628906 6.179688 -2.390625 7.015625 -2.390625 C 7.703125 -2.390625 8.328125 -2.492188 8.890625 -2.703125 C 9.460938 -2.910156 9.945312 -3.15625 10.34375 -3.4375 L 11.671875 -1.078125 C 11.117188 -0.734375 10.453125 -0.421875 9.671875 -0.140625 C 8.890625 0.140625 7.960938 0.28125 6.890625 0.28125 C 5.660156 0.28125 4.582031 0.0351562 3.65625 -0.453125 C 2.738281 -0.941406 2.023438 -1.628906 1.515625 -2.515625 C 1.015625 -3.398438 0.765625 -4.425781 0.765625 -5.59375 L 0.765625 -5.609375 C 0.765625 -6.765625 1 -7.78125 1.46875 -8.65625 C 1.945312 -9.539062 2.613281 -10.234375 3.46875 -10.734375 C 4.332031 -11.234375 5.347656 -11.484375 6.515625 -11.484375 C 7.703125 -11.484375 8.71875 -11.226562 9.5625 -10.71875 C 10.414062 -10.21875 11.070312 -9.492188 11.53125 -8.546875 C 11.988281 -7.609375 12.21875 -6.476562 12.21875 -5.15625 Z M 6.5 -9 C 5.832031 -9 5.273438 -8.785156 4.828125 -8.359375 C 4.390625 -7.941406 4.101562 -7.410156 3.96875 -6.765625 L 9.09375 -6.765625 C 8.976562 -7.410156 8.703125 -7.941406 8.265625 -8.359375 C 7.828125 -8.785156 7.238281 -9 6.5 -9 Z M 6.5 -9 "/></g></g></g><g fill="#03fa6e" fill-opacity="1"><g transform="translate(175.894136, 245.299906)"><g><path d="M 4.09375 0 L 1.03125 0 L 1.03125 -10.90625 C 1.65625 -11.019531 2.289062 -11.117188 2.9375 -11.203125 C 3.582031 -11.285156 4.1875 -11.351562 4.75 -11.40625 C 5.320312 -11.457031 5.796875 -11.484375 6.171875 -11.484375 C 7.085938 -11.484375 7.929688 -11.359375 8.703125 -11.109375 C 9.484375 -10.859375 10.101562 -10.421875 10.5625 -9.796875 C 11.03125 -9.171875 11.265625 -8.3125 11.265625 -7.21875 L 11.265625 0 L 8.234375 0 L 8.234375 -6.84375 C 8.234375 -7.539062 8.046875 -8.03125 7.671875 -8.3125 C 7.296875 -8.601562 6.753906 -8.75 6.046875 -8.75 C 5.773438 -8.75 5.472656 -8.734375 5.140625 -8.703125 C 4.804688 -8.671875 4.457031 -8.625 4.09375 -8.5625 Z M 4.09375 0 "/></g></g></g><g fill="#03fa6e" fill-opacity="1"><g transform="translate(187.489792, 245.299906)"><g><path d="M 9.484375 0 L 5.984375 0 C 4.660156 0 3.726562 -0.296875 3.1875 -0.890625 C 2.65625 -1.484375 2.390625 -2.382812 2.390625 -3.59375 L 2.390625 -8.234375 L 0.4375 -8.234375 L 0.4375 -11.046875 L 2.390625 -11.046875 L 2.390625 -14.421875 L 5.4375 -14.421875 L 5.4375 -11.046875 L 9.46875 -11.046875 L 9.46875 -8.234375 L 5.4375 -8.234375 L 5.4375 -4.5625 C 5.4375 -3.945312 5.585938 -3.503906 5.890625 -3.234375 C 6.203125 -2.960938 6.6875 -2.828125 7.34375 -2.828125 L 9.484375 -2.828125 Z M 9.484375 0 "/></g></g></g><g fill="#03fa6e" fill-opacity="1"><g transform="translate(197.047016, 245.299906)"><g><path d="M 6.90625 0.3125 C 5.707031 0.3125 4.644531 0.0546875 3.71875 -0.453125 C 2.800781 -0.972656 2.082031 -1.675781 1.5625 -2.5625 C 1.039062 -3.457031 0.78125 -4.46875 0.78125 -5.59375 L 0.78125 -5.609375 C 0.78125 -6.742188 1.039062 -7.753906 1.5625 -8.640625 C 2.082031 -9.523438 2.800781 -10.21875 3.71875 -10.71875 C 4.632812 -11.226562 5.695312 -11.484375 6.90625 -11.484375 C 8.113281 -11.484375 9.175781 -11.226562 10.09375 -10.71875 C 11.019531 -10.21875 11.742188 -9.523438 12.265625 -8.640625 C 12.785156 -7.753906 13.046875 -6.742188 13.046875 -5.609375 L 13.046875 -5.59375 C 13.046875 -4.46875 12.785156 -3.457031 12.265625 -2.5625 C 11.742188 -1.675781 11.019531 -0.972656 10.09375 -0.453125 C 9.175781 0.0546875 8.113281 0.3125 6.90625 0.3125 Z M 6.90625 -2.421875 C 7.519531 -2.421875 8.050781 -2.5625 8.5 -2.84375 C 8.957031 -3.125 9.316406 -3.503906 9.578125 -3.984375 C 9.835938 -4.472656 9.96875 -5.007812 9.96875 -5.59375 L 9.96875 -5.640625 C 9.96875 -6.222656 9.84375 -6.75 9.59375 -7.21875 C 9.34375 -7.6875 8.988281 -8.054688 8.53125 -8.328125 C 8.070312 -8.609375 7.53125 -8.75 6.90625 -8.75 C 6.289062 -8.75 5.753906 -8.609375 5.296875 -8.328125 C 4.835938 -8.054688 4.476562 -7.6875 4.21875 -7.21875 C 3.96875 -6.75 3.84375 -6.222656 3.84375 -5.640625 L 3.84375 -5.59375 C 3.84375 -5.007812 3.96875 -4.472656 4.21875 -3.984375 C 4.476562 -3.503906 4.835938 -3.125 5.296875 -2.84375 C 5.765625 -2.5625 6.300781 -2.421875 6.90625 -2.421875 Z M 6.90625 -2.421875 "/></g></g></g><g fill="#03fa6e" fill-opacity="1"><g transform="translate(210.124411, 245.299906)"><g/></g></g><g fill="#03fa6e" fill-opacity="1"><g transform="translate(212.643255, 245.299906)"><g/></g></g><g fill="#03fa6e" fill-opacity="1"><g transform="translate(215.163473, 245.299906)"><g><path d="M 4.09375 0 L 1.03125 0 L 1.03125 -10.921875 C 1.664062 -11.035156 2.289062 -11.132812 2.90625 -11.21875 C 3.53125 -11.300781 4.101562 -11.367188 4.625 -11.421875 C 5.144531 -11.472656 5.566406 -11.5 5.890625 -11.5 C 6.585938 -11.5 7.226562 -11.382812 7.8125 -11.15625 C 8.394531 -10.9375 8.863281 -10.554688 9.21875 -10.015625 C 9.613281 -10.546875 10.125 -10.925781 10.75 -11.15625 C 11.375 -11.382812 12.085938 -11.5 12.890625 -11.5 C 13.847656 -11.5 14.671875 -11.359375 15.359375 -11.078125 C 16.046875 -10.804688 16.570312 -10.359375 16.9375 -9.734375 C 17.3125 -9.117188 17.5 -8.28125 17.5 -7.21875 L 17.5 0 L 14.4375 0 L 14.4375 -6.859375 C 14.4375 -7.441406 14.316406 -7.90625 14.078125 -8.25 C 13.847656 -8.59375 13.351562 -8.765625 12.59375 -8.765625 C 11.851562 -8.765625 11.359375 -8.59375 11.109375 -8.25 C 10.867188 -7.90625 10.75 -7.441406 10.75 -6.859375 L 10.75 0 L 7.71875 0 L 7.71875 -6.859375 C 7.71875 -7.566406 7.539062 -8.0625 7.1875 -8.34375 C 6.832031 -8.625 6.351562 -8.765625 5.75 -8.765625 C 5.507812 -8.765625 5.25 -8.75 4.96875 -8.71875 C 4.695312 -8.6875 4.40625 -8.640625 4.09375 -8.578125 Z M 4.09375 0 "/></g></g></g><g fill="#03fa6e" fill-opacity="1"><g transform="translate(232.970605, 245.299906)"><g><path d="M 6.90625 0.3125 C 5.707031 0.3125 4.644531 0.0546875 3.71875 -0.453125 C 2.800781 -0.972656 2.082031 -1.675781 1.5625 -2.5625 C 1.039062 -3.457031 0.78125 -4.46875 0.78125 -5.59375 L 0.78125 -5.609375 C 0.78125 -6.742188 1.039062 -7.753906 1.5625 -8.640625 C 2.082031 -9.523438 2.800781 -10.21875 3.71875 -10.71875 C 4.632812 -11.226562 5.695312 -11.484375 6.90625 -11.484375 C 8.113281 -11.484375 9.175781 -11.226562 10.09375 -10.71875 C 11.019531 -10.21875 11.742188 -9.523438 12.265625 -8.640625 C 12.785156 -7.753906 13.046875 -6.742188 13.046875 -5.609375 L 13.046875 -5.59375 C 13.046875 -4.46875 12.785156 -3.457031 12.265625 -2.5625 C 11.742188 -1.675781 11.019531 -0.972656 10.09375 -0.453125 C 9.175781 0.0546875 8.113281 0.3125 6.90625 0.3125 Z M 6.90625 -2.421875 C 7.519531 -2.421875 8.050781 -2.5625 8.5 -2.84375 C 8.957031 -3.125 9.316406 -3.503906 9.578125 -3.984375 C 9.835938 -4.472656 9.96875 -5.007812 9.96875 -5.59375 L 9.96875 -5.640625 C 9.96875 -6.222656 9.84375 -6.75 9.59375 -7.21875 C 9.34375 -7.6875 8.988281 -8.054688 8.53125 -8.328125 C 8.070312 -8.609375 7.53125 -8.75 6.90625 -8.75 C 6.289062 -8.75 5.753906 -8.609375 5.296875 -8.328125 C 4.835938 -8.054688 4.476562 -7.6875 4.21875 -7.21875 C 3.96875 -6.75 3.84375 -6.222656 3.84375 -5.640625 L 3.84375 -5.59375 C 3.84375 -5.007812 3.96875 -4.472656 4.21875 -3.984375 C 4.476562 -3.503906 4.835938 -3.125 5.296875 -2.84375 C 5.765625 -2.5625 6.300781 -2.421875 6.90625 -2.421875 Z M 6.90625 -2.421875 "/></g></g></g><g fill="#03fa6e" fill-opacity="1"><g transform="translate(246.047012, 245.299906)"><g><path d="M 6.15625 0.3125 C 5.476562 0.3125 4.832031 0.242188 4.21875 0.109375 C 3.601562 -0.0234375 3.054688 -0.253906 2.578125 -0.578125 C 2.097656 -0.910156 1.71875 -1.351562 1.4375 -1.90625 C 1.164062 -2.457031 1.03125 -3.144531 1.03125 -3.96875 L 1.03125 -11.046875 L 4.09375 -11.046875 L 4.09375 -4.21875 C 4.09375 -3.507812 4.28125 -3.015625 4.65625 -2.734375 C 5.03125 -2.453125 5.578125 -2.3125 6.296875 -2.3125 C 6.554688 -2.3125 6.851562 -2.328125 7.1875 -2.359375 C 7.519531 -2.390625 7.867188 -2.4375 8.234375 -2.5 L 8.234375 -11.046875 L 11.265625 -11.046875 L 11.265625 -0.265625 C 10.671875 -0.160156 10.046875 -0.0664062 9.390625 0.015625 C 8.742188 0.109375 8.132812 0.179688 7.5625 0.234375 C 7 0.285156 6.53125 0.3125 6.15625 0.3125 Z M 6.15625 0.3125 "/></g></g></g><g fill="#03fa6e" fill-opacity="1"><g transform="translate(257.642669, 245.299906)"><g><path d="M 4.09375 0 L 1.03125 0 L 1.03125 -10.625 C 1.570312 -10.738281 2.128906 -10.828125 2.703125 -10.890625 C 3.273438 -10.953125 3.8125 -10.992188 4.3125 -11.015625 C 4.8125 -11.035156 5.226562 -11.046875 5.5625 -11.046875 L 7.71875 -11.046875 L 7.71875 -8.234375 L 6.0625 -8.234375 C 5.90625 -8.234375 5.6875 -8.222656 5.40625 -8.203125 C 5.125 -8.179688 4.859375 -8.160156 4.609375 -8.140625 C 4.359375 -8.117188 4.1875 -8.097656 4.09375 -8.078125 Z M 4.09375 0 "/></g></g></g><g fill="#03fa6e" fill-opacity="1"><g transform="translate(265.353755, 245.299906)"><g><path d="M 6.1875 -11.421875 C 7.21875 -11.421875 8.109375 -11.28125 8.859375 -11 C 9.617188 -10.726562 10.207031 -10.273438 10.625 -9.640625 C 11.039062 -9.003906 11.25 -8.144531 11.25 -7.0625 L 11.25 -0.234375 C 10.5 -0.0664062 9.664062 0.0625 8.75 0.15625 C 7.84375 0.257812 7.007812 0.3125 6.25 0.3125 C 5.125 0.3125 4.148438 0.195312 3.328125 -0.03125 C 2.503906 -0.269531 1.867188 -0.648438 1.421875 -1.171875 C 0.984375 -1.703125 0.765625 -2.394531 0.765625 -3.25 L 0.765625 -3.296875 C 0.765625 -4.472656 1.207031 -5.335938 2.09375 -5.890625 C 2.976562 -6.441406 4.175781 -6.71875 5.6875 -6.71875 C 6.101562 -6.71875 6.507812 -6.707031 6.90625 -6.6875 C 7.3125 -6.664062 7.738281 -6.625 8.1875 -6.5625 L 8.1875 -6.96875 C 8.1875 -7.65625 7.957031 -8.140625 7.5 -8.421875 C 7.039062 -8.703125 6.390625 -8.84375 5.546875 -8.84375 C 4.992188 -8.84375 4.359375 -8.773438 3.640625 -8.640625 C 2.921875 -8.503906 2.257812 -8.316406 1.65625 -8.078125 L 2.328125 -10.796875 C 2.609375 -10.910156 2.957031 -11.015625 3.375 -11.109375 C 3.800781 -11.203125 4.257812 -11.273438 4.75 -11.328125 C 5.25 -11.390625 5.726562 -11.421875 6.1875 -11.421875 Z M 3.90625 -3.4375 L 3.90625 -3.40625 C 3.90625 -2.925781 4.117188 -2.582031 4.546875 -2.375 C 4.972656 -2.175781 5.578125 -2.078125 6.359375 -2.078125 C 6.898438 -2.078125 7.507812 -2.128906 8.1875 -2.234375 L 8.1875 -4.609375 C 7.882812 -4.660156 7.566406 -4.695312 7.234375 -4.71875 C 6.898438 -4.75 6.609375 -4.765625 6.359375 -4.765625 C 5.597656 -4.765625 5 -4.664062 4.5625 -4.46875 C 4.125 -4.269531 3.90625 -3.925781 3.90625 -3.4375 Z M 3.90625 -3.4375 "/></g></g></g></svg>